<?xml version="1.0" encoding="UTF-8" standalone="no"?>
<!-- Created with Inkscape (http://www.inkscape.org/) -->

<svg
   xmlns:dc="http://purl.org/dc/elements/1.1/"
   xmlns:cc="http://creativecommons.org/ns#"
   xmlns:rdf="http://www.w3.org/1999/02/22-rdf-syntax-ns#"
   xmlns:svg="http://www.w3.org/2000/svg"
   xmlns="http://www.w3.org/2000/svg"
   xmlns:sodipodi="http://sodipodi.sourceforge.net/DTD/sodipodi-0.dtd"
   xmlns:inkscape="http://www.inkscape.org/namespaces/inkscape"
   width="40"
   height="40"
   viewBox="0 0 10.583333 10.583334"
   version="1.1"
   id="svg8"
   inkscape:version="0.92.1 r15371"
   sodipodi:docname="failed.svg">
  <defs
     id="defs2" />
  <sodipodi:namedview
     id="base"
     pagecolor="#ffffff"
     bordercolor="#666666"
     borderopacity="1.0"
     inkscape:pageopacity="0.0"
     inkscape:pageshadow="2"
     inkscape:zoom="11.2"
     inkscape:cx="18.789318"
     inkscape:cy="29.563884"
     inkscape:document-units="px"
     inkscape:current-layer="layer1"
     showgrid="false"
     units="px"
     inkscape:showpageshadow="false"
     borderlayer="true"
     inkscape:window-width="1920"
     inkscape:window-height="1017"
     inkscape:window-x="-8"
     inkscape:window-y="-8"
     inkscape:window-maximized="1" />
  <metadata
     id="metadata5">
    <rdf:RDF>
      <cc:Work
         rdf:about="">
        <dc:format>image/svg+xml</dc:format>
        <dc:type
           rdf:resource="http://purl.org/dc/dcmitype/StillImage" />
        <dc:title></dc:title>
      </cc:Work>
    </rdf:RDF>
  </metadata>
  <g
     inkscape:label="Calque 1"
     inkscape:groupmode="layer"
     id="layer1"
     transform="translate(0,-286.41665)">
    <path
       style="opacity:1;fill:#000000;fill-opacity:1;fill-rule:nonzero;stroke:none;stroke-width:1;stroke-miterlimit:4;stroke-dasharray:none;stroke-dashoffset:0;stroke-opacity:1"
       d="m 1.8533774,296.97906 c -0.0073,-0.0116 -0.06191,-0.0277 -0.121553,-0.0356 -0.05964,-0.008 -0.108429,-0.023 -0.108429,-0.0334 0,-0.0104 -0.0099,-0.0191 -0.02205,-0.0191 -0.02504,0 -0.133229,-0.0909 -0.21469,-0.18039 -0.03011,-0.0331 -0.06787,-0.0602 -0.08393,-0.0602 -0.01605,0 -0.02918,-0.0109 -0.02918,-0.0243 0,-0.0289 -0.234536,-0.26003 -0.263858,-0.26003 -0.01122,0 -0.02039,-0.0107 -0.02039,-0.0239 0,-0.0299 -0.757006,-0.78517 -0.787012,-0.78517 -0.01211,0 -0.02202,-0.0132 -0.02202,-0.0294 0,-0.0162 -0.02459,-0.058 -0.05464,-0.093 -0.03005,-0.0349 -0.05465,-0.0785 -0.05467,-0.0969 -1.4e-5,-0.0184 -0.01542,-0.0554 -0.03423,-0.0822 -0.04831,-0.069 -0.04745,-0.51648 0.0011,-0.56501 0.01821,-0.0182 0.03312,-0.0481 0.03312,-0.0664 0,-0.0183 0.02117,-0.0643 0.04705,-0.1023 0.02588,-0.0379 0.650689,-0.67437 1.388471,-1.41429 1.014457,-1.01742 1.341422,-1.3579 1.341422,-1.39689 0,-0.0391 -0.328807,-0.38026 -1.354674,-1.40579 -0.745071,-0.74481 -1.360706,-1.37322 -1.368079,-1.39644 -0.0074,-0.0233 -0.02258,-0.0423 -0.0338,-0.0423 -0.01121,0 -0.02039,-0.0224 -0.02039,-0.0498 0,-0.0274 -0.01684,-0.0739 -0.03744,-0.10324 -0.03049,-0.0435 -0.03649,-0.0959 -0.03233,-0.28265 0.0028,-0.12607 0.01395,-0.23468 0.02477,-0.24137 0.01082,-0.007 0.02684,-0.0408 0.03561,-0.0757 0.0087,-0.0349 0.03661,-0.088 0.06186,-0.11781 0.06153,-0.0728 1.390337,-1.40112 1.464122,-1.46363 0.03405,-0.0288 0.08739,-0.0492 0.128967,-0.0493 0.03899,-9e-5 0.09908,-0.0148 0.133527,-0.0328 0.08007,-0.0418 0.274006,-0.0413 0.329666,8.2e-4 0.02334,0.0177 0.07165,0.0321 0.10734,0.0321 0.04162,0 0.10482,0.0303 0.176214,0.0847 0.06123,0.0466 0.696769,0.67015 1.412324,1.38571 0.715556,0.71556 1.322734,1.30771 1.349285,1.31589 0.02729,0.008 0.07278,0.002 0.104642,-0.0146 0.031,-0.0162 0.648847,-0.62084 1.372993,-1.34356 0.724147,-0.72271 1.358253,-1.33969 1.409125,-1.37106 0.05088,-0.0313 0.115409,-0.057 0.143414,-0.057 0.02801,0 0.07002,-0.0144 0.09336,-0.0321 0.05913,-0.0447 0.329021,-0.0452 0.373553,-6.6e-4 0.01804,0.018 0.06571,0.0328 0.105945,0.0328 0.04023,0 0.07643,0.007 0.08044,0.0166 0.0093,0.0213 0.184189,0.15835 0.201956,0.15835 0.02194,0 1.1418406,1.129 1.2088186,1.21865 0.03383,0.0452 0.07911,0.10182 0.100627,0.12564 0.02151,0.0239 0.04471,0.0656 0.05156,0.093 0.0069,0.0273 0.02123,0.0496 0.03196,0.0496 0.01072,0 0.0195,0.12607 0.0195,0.28015 0,0.23899 -0.0068,0.2944 -0.04584,0.37719 -0.03359,0.0711 -0.41056,0.46239 -1.4103376,1.46387 -1.273849,1.27603 -1.364502,1.37182 -1.364502,1.44184 0,0.07 0.08495,0.15986 1.273678,1.34758 1.3653866,1.36422 1.4376686,1.43828 1.4376686,1.4732 0,0.0125 0.008,0.0229 0.01766,0.0229 0.0097,0 0.03431,0.0378 0.05466,0.0839 0.02821,0.0639 0.03701,0.14777 0.03701,0.35256 v 0.26868 l -0.08747,0.13099 c -0.0481,0.0721 -0.08747,0.13354 -0.08747,0.13667 0,0.0225 -1.3186856,1.31746 -1.3844786,1.35957 -0.04591,0.0293 -0.132293,0.0593 -0.191964,0.0663 -0.05967,0.007 -0.113706,0.0213 -0.120078,0.0316 -0.01616,0.0262 -0.178379,0.0236 -0.194862,-0.003 -0.0075,-0.012 -0.05476,-0.0222 -0.105153,-0.0226 -0.0504,-3.3e-4 -0.130997,-0.0198 -0.179101,-0.043 -0.0481,-0.0233 -0.09359,-0.0426 -0.101073,-0.043 -0.0075,-3.3e-4 -0.622457,-0.60936 -1.366605,-1.35323 -0.744148,-0.74387 -1.374644,-1.35934 -1.401102,-1.36773 -0.02858,-0.009 -0.07296,-0.002 -0.109328,0.0172 -0.03368,0.0179 -0.656518,0.62946 -1.384098,1.35914 -1.051681,1.05472 -1.345289,1.33737 -1.432204,1.37879 -0.06013,0.0286 -0.125967,0.0522 -0.146304,0.0523 -0.02033,1.1e-4 -0.04305,0.01 -0.05049,0.0221 -0.01738,0.0281 -0.310251,0.0287 -0.327592,6.6e-4 z"
       id="path4509"
       inkscape:connector-curvature="0" />
  </g>
</svg>
