<?xml version="1.0" encoding="UTF-8" standalone="no"?>
<!-- Created with Inkscape (http://www.inkscape.org/) -->

<svg
   xmlns:dc="http://purl.org/dc/elements/1.1/"
   xmlns:cc="http://creativecommons.org/ns#"
   xmlns:rdf="http://www.w3.org/1999/02/22-rdf-syntax-ns#"
   xmlns:svg="http://www.w3.org/2000/svg"
   xmlns="http://www.w3.org/2000/svg"
   xmlns:sodipodi="http://sodipodi.sourceforge.net/DTD/sodipodi-0.dtd"
   xmlns:inkscape="http://www.inkscape.org/namespaces/inkscape"
   width="40"
   height="40"
   viewBox="0 0 10.583333 10.583334"
   version="1.1"
   id="svg8"
   inkscape:version="0.92.1 r15371"
   sodipodi:docname="play.svg">
  <defs
     id="defs2" />
  <sodipodi:namedview
     id="base"
     pagecolor="#ffffff"
     bordercolor="#666666"
     borderopacity="1.0"
     inkscape:pageopacity="0.0"
     inkscape:pageshadow="2"
     inkscape:zoom="11.2"
     inkscape:cx="36.019953"
     inkscape:cy="8.4151221"
     inkscape:document-units="px"
     inkscape:current-layer="layer1"
     showgrid="false"
     units="px"
     inkscape:showpageshadow="false"
     borderlayer="true"
     inkscape:window-width="1920"
     inkscape:window-height="1017"
     inkscape:window-x="-8"
     inkscape:window-y="-8"
     inkscape:window-maximized="1" />
  <metadata
     id="metadata5">
    <rdf:RDF>
      <cc:Work
         rdf:about="">
        <dc:format>image/svg+xml</dc:format>
        <dc:type
           rdf:resource="http://purl.org/dc/dcmitype/StillImage" />
        <dc:title></dc:title>
      </cc:Work>
    </rdf:RDF>
  </metadata>
  <g
     inkscape:label="Calque 1"
     inkscape:groupmode="layer"
     id="layer1"
     transform="translate(0,-286.41665)">
    <g
       id="g4528"
       transform="matrix(0.12613548,0,0,0.12613548,25.848367,259.70273)"
       style="stroke-width:7.92798328">
      <path
         transform="matrix(0.26458334,0,0,0.26458334,0,286.41665)"
         inkscape:connector-curvature="0"
         id="path4522"
         d="m -635.98014,34.631909 c -3.11182,-0.320885 -5.94151,-0.867079 -6.2882,-1.213769 -0.39484,-0.394848 -2.08683,-0.630335 -4.529,-0.630335 -2.63245,0 -4.44508,-0.273812 -5.58109,-0.843073 -0.92533,-0.463691 -2.07709,-1.031901 -2.55946,-1.262691 -0.48236,-0.230789 -1.74581,-0.419617 -2.80765,-0.419617 -1.06184,0 -2.37181,-0.333699 -2.91104,-0.741553 -0.53923,-0.407849 -1.59204,-0.748776 -2.33957,-0.757615 -0.74753,-0.0088 -1.49962,-0.243345 -1.67131,-0.521137 -0.17168,-0.277792 -0.69649,-0.506476 -1.16623,-0.508188 -0.46974,-0.0015 -1.50509,-0.342639 -2.30077,-0.757614 -0.79568,-0.414976 -2.21621,-0.754503 -3.15673,-0.754503 -0.94051,0 -1.71003,-0.187 -1.71003,-0.415547 0,-0.43675 -4.06253,-2.614911 -4.87711,-2.614911 -0.61218,0 -14.8025,-7.152239 -16.37351,-8.252608 -0.65862,-0.461322 -1.57718,-0.838765 -2.04123,-0.838765 -0.46406,0 -0.96082,-0.305127 -1.10393,-0.678055 -0.14311,-0.372933 -1.07656,-1.065448 -2.07434,-1.538927 -0.99778,-0.473479 -1.81415,-1.077489 -1.81415,-1.34225 0,-0.264756 -0.41495,-0.481378 -0.92211,-0.481378 -0.50716,0 -1.45591,-0.568211 -2.10835,-1.2626909 -0.65243,-0.6944799 -1.3836,-1.2626907 -1.62483,-1.2626907 -0.56863,0 -5.49204,-3.6362613 -6.39256,-4.7213166 -0.38092,-0.4589881 -0.90195,-0.8345224 -1.15783,-0.8345224 -0.25587,0 -1.3832,-0.8523162 -2.50517,-1.89403602 -1.12196,-1.04171982 -2.61311,-2.23496248 -3.31365,-2.65165048 -1.14665,-0.6820246 -13.7953,-12.9508429 -13.7953,-13.3810209 0,-0.09809 -0.62504,-0.839053 -1.38896,-1.646599 -0.76393,-0.807547 -1.88619,-2.131917 -2.49391,-2.943039 -1.63563,-2.183097 -2.77529,-3.616109 -4.30855,-5.417575 -0.75508,-0.887171 -1.77272,-2.351716 -2.26143,-3.254539 -0.4887,-0.902824 -1.06414,-1.641498 -1.27876,-1.641498 -0.21463,0 -0.39022,-0.236876 -0.39022,-0.526396 0,-0.557008 -0.0975,-0.696273 -2.50782,-3.580895 -0.84304,-1.00894 -1.53279,-2.168994 -1.53279,-2.577894 0,-0.408899 -0.56822,-1.356564 -1.2627,-2.10592 -0.69448,-0.749357 -1.26269,-1.678268 -1.26269,-2.064247 0,-0.385984 -0.22788,-0.842624 -0.5064,-1.014764 -0.27853,-0.172135 -0.95978,-1.308188 -1.5139,-2.524558 -0.55412,-1.21637 -1.23538,-2.352423 -1.5139,-2.524558 -0.27852,-0.17214 -0.50641,-0.699632 -0.50641,-1.172217 0,-0.472579 -0.56821,-1.472024 -1.26269,-2.220987 -0.69448,-0.748967 -1.26269,-1.798415 -1.26269,-2.332109 0,-0.533693 -0.34092,-1.253296 -0.75761,-1.599116 -0.41669,-0.345821 -0.75762,-1.043478 -0.75762,-1.550347 0,-0.50687 -0.56821,-1.990243 -1.26269,-3.296375 -0.69448,-1.306138 -1.26269,-2.694956 -1.26269,-3.086259 0,-0.391298 -0.56821,-1.729219 -1.26269,-2.973152 -0.69448,-1.243932 -1.26364,-2.878662 -1.2648,-3.63273 -0.001,-0.754074 -0.5578,-2.466288 -1.23696,-3.804922 -0.67916,-1.338634 -1.38902,-3.497835 -1.57747,-4.798224 -0.18844,-1.30039 -0.48413,-2.591628 -0.65708,-2.869419 -0.3295,-0.529245 -1.42908,-5.309943 -1.9168,-8.333759 -0.15682,-0.972272 -0.52048,-2.060514 -0.80813,-2.41831 -0.28765,-0.357801 -0.61675,-2.971571 -0.73135,-5.808377 -0.11459,-2.83681 -0.40263,-5.6124 -0.64008,-6.16799 -0.23746,-0.55558 -0.56132,-2.78292 -0.71971,-4.94963 -0.15838,-2.16671 -0.5172,-4.36779 -0.79737,-4.89129 -0.69319,-1.29525 -0.67199,-17.82618 0.0238,-18.52193 0.29323,-0.29323 0.6683,-2.61922 0.83348,-5.16886 0.16519,-2.54964 0.49348,-4.75508 0.72955,-4.90097 0.23606,-0.1459 0.44275,-1.78603 0.45931,-3.64473 0.0296,-3.32159 0.37426,-5.68935 1.48449,-10.19798 0.30782,-1.25006 0.80005,-3.52291 1.09385,-5.05076 0.2938,-1.52786 0.73622,-2.99384 0.98317,-3.25775 0.24695,-0.2639 0.44899,-0.88099 0.44899,-1.3713 0,-1.02791 1.24936,-4.99037 2.3069,-7.31658 0.39796,-0.87536 0.72356,-2.03008 0.72356,-2.56605 0,-0.53597 0.56726,-2.09261 1.26058,-3.4592 0.69332,-1.36659 1.26153,-2.70873 1.26269,-2.98254 0.002,-0.46706 1.77845,-4.40241 3.34442,-7.40878 0.38407,-0.73734 0.6983,-1.81694 0.6983,-2.39912 0,-0.58217 0.20265,-1.05849 0.45032,-1.05849 0.24768,0 0.59294,-0.56821 0.76724,-1.26269 0.1743,-0.69448 0.53987,-1.26269 0.81237,-1.26269 0.2725,0 0.49545,-0.45457 0.49545,-1.01015 0,-0.55559 0.19598,-1.01016 0.4355,-1.01016 0.23952,0 0.97503,-1.13642 1.63447,-2.52538 0.65943,-1.38896 1.3726,-2.52538 1.58481,-2.52538 0.21221,0 0.38583,-0.48533 0.38583,-1.0785 0,-0.59318 0.56821,-1.6051 1.26269,-2.24873 0.69448,-0.64362 1.2627,-1.41037 1.2627,-1.70388 0,-0.53312 5.85118,-8.96244 8.3008,-11.95827 0.7126,-0.87149 1.29564,-1.686 1.29564,-1.80999 0,-0.124 0.92781,-1.22923 2.06179,-2.45606 1.13398,-1.22684 2.5545,-2.87798 3.15672,-3.6692 1.66973,-2.19375 11.3573,-11.83195 14.39067,-14.31732 1.47901,-1.21183 3.20705,-2.70818 3.8401,-3.32523 1.91228,-1.86398 3.47477,-3.10153 5.46634,-4.32956 1.04172,-0.64234 1.89404,-1.37664 1.89404,-1.63177 0,-0.25514 0.22063,-0.46389 0.49031,-0.46389 0.57929,0 5.24212,-3.11211 5.48642,-3.6618 0.0926,-0.20834 0.41207,-0.37881 0.70994,-0.37881 0.29787,0 1.28655,-0.56821 2.19706,-1.26269 0.91051,-0.69448 1.81654,-1.26269 2.0134,-1.26269 0.19686,0 1.79744,-0.90914 3.55685,-2.0203 1.75941,-1.11117 3.55256,-2.02031 3.98477,-2.02031 0.43222,0 0.91667,-0.34092 1.07657,-0.75761 0.1599,-0.41669 0.60734,-0.75762 0.9943,-0.75762 0.38697,0 0.70358,-0.20199 0.70358,-0.44886 0,-0.24688 0.7955,-0.5981 1.76777,-0.7805 0.97227,-0.1824 1.76776,-0.54862 1.76776,-0.81383 0,-0.2652 0.34093,-0.48219 0.75762,-0.48219 0.41669,0 0.75761,-0.2246 0.75761,-0.49911 0,-0.27451 0.90914,-0.64448 2.02031,-0.82216 1.11117,-0.17769 2.0203,-0.5213 2.0203,-0.76359 0,-0.24228 0.54038,-0.44052 1.20085,-0.44052 0.66047,0 1.48379,-0.34093 1.82961,-0.75761 0.34582,-0.41669 1.15573,-0.75762 1.79981,-0.75762 0.64406,0 1.30069,-0.2098 1.45917,-0.46622 0.15848,-0.25642 1.0242,-0.61764 1.92385,-0.80272 2.19754,-0.45208 5.42377,-1.85814 5.42377,-2.36379 0,-0.22434 1.12301,-0.40788 2.49557,-0.40788 1.37257,0 2.61918,-0.19999 2.77025,-0.44443 0.43123,-0.69774 5.09433,-2.08095 7.01534,-2.08095 0.95551,0 2.00671,-0.32463 2.336,-0.72141 0.39384,-0.47454 2.01372,-0.80372 4.7338,-0.96195 4.52982,-0.2635 11.161,-1.37949 11.75589,-1.97844 0.5517,-0.55546 36.45682,-0.47094 36.80142,0.0866 0.15821,0.256 1.76577,0.62374 3.57236,0.81721 1.80659,0.19347 3.4086,0.55223 3.56003,0.79725 0.15143,0.24501 2.03674,0.44548 4.18959,0.44548 2.65977,0 4.22849,0.23766 4.89469,0.74155 0.53923,0.40786 1.77591,0.74897 2.74818,0.75803 1.68695,0.0157 6.11939,1.421 6.87949,2.1811 0.19797,0.19796 1.45848,0.35993 2.80114,0.35993 1.34266,0 2.4412,0.18354 2.4412,0.40788 0,0.50565 3.22623,1.91171 5.42378,2.36379 0.89964,0.18508 1.76537,0.5463 1.92384,0.80272 0.15848,0.25642 0.81511,0.46622 1.45918,0.46622 0.64407,0 1.45398,0.34093 1.7998,0.75762 0.34582,0.41668 1.05551,0.75761 1.57707,0.75761 0.52158,0 0.94832,0.22728 0.94832,0.50508 0,0.27779 0.337,0.50507 0.7489,0.50507 0.94574,0 10.23685,4.43841 10.63304,5.07945 0.16193,0.26202 0.73558,0.47639 1.27477,0.47639 0.53919,0 0.98034,0.22296 0.98034,0.49546 0,0.27249 0.56822,0.63806 1.2627,0.81236 0.69448,0.17431 1.26269,0.51956 1.26269,0.76724 0,0.24768 0.31309,0.45032 0.69577,0.45032 0.38267,0 0.97871,0.34093 1.32453,0.75762 0.34582,0.41669 1.00101,0.75761 1.45596,0.75761 0.45497,0 1.44,0.56821 2.18896,1.26269 0.74897,0.69448 1.65578,1.26705 2.01515,1.27238 0.35936,0.005 1.56004,0.80083 2.66817,1.76777 1.10813,0.96694 2.18773,1.75808 2.39911,1.75808 0.21138,0 0.78958,0.39774 1.28488,0.88388 1.18703,1.16507 4.51037,3.6618 4.87413,3.6618 0.15743,0 0.71092,0.39775 1.22998,0.88389 2.79283,2.61568 7.80596,6.96679 8.19269,7.11079 0.67087,0.24979 7.46828,7.15636 10.05646,10.21796 1.25007,1.47872 3.01152,3.47242 3.91434,4.43045 0.90283,0.95803 1.6415,1.83458 1.6415,1.94788 0,0.1133 0.51139,0.70817 1.13642,1.32193 1.15506,1.13423 2.13274,2.51887 2.7443,3.8866 0.18631,0.41669 0.47484,0.87126 0.64118,1.01016 0.16634,0.13889 1.09036,1.27531 2.05339,2.52538 0.96303,1.25006 1.92311,2.3486 2.13352,2.4412 0.21041,0.0926 0.38256,0.47411 0.38256,0.8478 0,0.3737 0.28466,0.9798 0.63257,1.34688 0.34791,0.36708 1.08145,1.51973 1.63009,2.56145 0.54863,1.04172 1.17312,1.89404 1.38773,1.89404 0.21463,0 0.39023,0.35609 0.39023,0.79131 0,0.43523 0.54322,1.51483 1.20716,2.39912 0.66395,0.88428 1.68613,2.67361 2.27152,3.97628 0.58539,1.30266 1.29223,2.50932 1.57075,2.68145 0.27852,0.17214 0.5064,0.75414 0.5064,1.29333 0,0.53919 0.22729,0.98034 0.50508,0.98034 0.27779,0 0.50508,0.27051 0.50508,0.60113 0,0.57704 1.84581,4.62465 4.36358,9.56875 0.65574,1.28766 1.19948,2.87865 1.20832,3.53553 0.009,0.65689 0.34976,1.63553 0.75761,2.17476 0.40786,0.53923 0.74155,1.50827 0.74155,2.15343 0,0.64515 0.19385,1.56767 0.43076,2.05004 1.49928,3.05254 2.05697,4.64815 2.24837,6.43287 0.11915,1.11116 0.70152,3.26716 1.29414,4.79109 0.59262,1.52393 1.0775,3.81016 1.0775,5.08049 0,1.27035 0.3337,2.7509 0.74155,3.29013 0.40909,0.54087 0.74875,2.0832 0.75761,3.44019 0.009,1.35287 0.48824,5.71661 1.06533,9.69719 0.90827,6.26491 1.01818,8.92063 0.81796,19.76359 -0.15122,8.18932 -0.5083,14.09999 -1.03135,17.07185 -0.44003,2.50013 -0.80811,5.868804 -0.81796,7.485952 -0.0117,1.919987 -0.28081,3.203158 -0.77553,3.697881 -0.52586,0.525865 -0.75761,1.815198 -0.75761,4.214982 0,1.901552 -0.17047,3.533125 -0.37881,3.625726 -0.84935,0.377489 -2.14657,4.134317 -2.14657,6.2166 0,1.224244 -0.20627,2.353377 -0.45837,2.509183 -0.25209,0.155806 -0.83429,1.589748 -1.29376,3.186537 -0.45947,1.596788 -1.16234,3.546701 -1.56194,4.33314 -0.3996,0.786439 -0.72654,1.692314 -0.72654,2.013057 0,0.320739 -0.54023,1.722846 -1.20052,3.115795 -3.14447,6.633647 -4.35532,9.372797 -4.35532,9.852463 0,0.573792 -1.07424,2.633038 -1.58285,3.03423 -0.17609,0.138896 -1.0836,1.729887 -2.0167,3.535534 -0.93309,1.805648 -1.98226,3.583335 -2.33149,3.950419 -0.34922,0.367079 -0.63495,0.913839 -0.63495,1.215016 0,0.301177 -0.56822,1.292556 -1.2627,2.203067 -0.69448,0.910511 -1.26269,1.89792 -1.26269,2.194249 0,0.296328 -0.22295,0.538775 -0.49545,0.538775 -0.2725,0 -0.63806,0.56821 -0.81237,1.26269 -0.1743,0.69448 -0.51956,1.262691 -0.76724,1.262691 -0.24767,0 -0.45032,0.316612 -0.45032,0.703576 0,0.38697 -0.34092,0.834401 -0.75761,0.994304 -0.41669,0.159897 -0.75762,0.584282 -0.75762,0.943078 0,0.358801 -0.56821,1.26515 -1.26269,2.014113 -0.69448,0.748967 -1.26269,1.514592 -1.26269,1.701395 0,0.311162 -1.41061,2.020633 -4.9658,6.017903 -0.74121,0.833376 -1.77749,2.181242 -2.30285,2.995259 -1.33607,2.070171 -12.9854,13.71079 -14.11877,14.1082143 -0.51251,0.1797162 -1.05041,0.7801762 -1.19533,1.334361 -0.14492,0.5541798 -0.57008,1.0076019 -0.94479,1.0076019 -0.37471,0 -1.37881,0.681853 -2.23135,1.51522884 -0.85253,0.83337585 -1.7695,1.51522882 -2.03772,1.51522882 -0.26821,0 -0.49277,0.17046324 -0.49901,0.37880724 -0.006,0.2083439 -1.13756,1.1743023 -2.51403,2.1465741 -1.37647,0.9722718 -2.50779,1.9382302 -2.51403,2.1465742 -0.006,0.2083439 -0.32796,0.3788072 -0.71493,0.3788072 -0.38697,0 -0.8344,0.3409265 -0.9943,0.7576144 -0.1599,0.4166879 -0.66954,0.7576144 -1.13254,0.7576144 -0.463,0 -1.36842,0.5682108 -2.01204,1.2626907 -0.64362,0.6944799 -1.52913,1.2626909 -1.96781,1.2626909 -0.43867,0 -0.9284,0.340926 -1.0883,0.757614 -0.1599,0.416688 -0.66648,0.757615 -1.12574,0.757615 -0.45925,0 -1.44779,0.56821 -2.19675,1.26269 -0.74897,0.69448 -1.61413,1.262691 -1.92258,1.262691 -0.30845,0 -1.30578,0.568211 -2.21629,1.262691 -0.91051,0.69448 -1.97495,1.263665 -2.36542,1.264852 -0.39046,10e-4 -1.73272,0.68207 -2.98278,1.513067 -1.25006,0.830997 -2.55695,1.511875 -2.90419,1.513067 -0.34724,0.001 -0.63134,0.229446 -0.63134,0.507238 0,0.277792 -0.5548,0.505077 -1.23288,0.505077 -0.67809,0 -1.36446,0.212889 -1.52527,0.473094 -0.41069,0.664499 -3.00635,1.906921 -4.81291,2.303709 -0.83617,0.183656 -1.52032,0.543144 -1.52032,0.798864 0,0.255715 -0.54038,0.464943 -1.20084,0.464943 -0.66047,0 -1.48379,0.340926 -1.82961,0.757614 -0.34582,0.416688 -1.22597,0.75969 -1.95588,0.762231 -0.72992,0.0025 -2.46354,0.563645 -3.8525,1.246897 -1.38896,0.683252 -3.09359,1.256614 -3.78807,1.274136 -0.69448,0.01753 -1.70388,0.365559 -2.24311,0.773408 -0.5425,0.410334 -2.05198,0.741553 -3.37946,0.741553 -1.31947,0 -2.53951,0.227284 -2.71119,0.505076 -0.17169,0.277792 -0.73707,0.505076 -1.25642,0.505076 -0.51935,0 -1.2852,0.340927 -1.70188,0.757615 -0.54511,0.545103 -1.8728,0.757614 -4.73329,0.757614 -2.47225,0 -4.21056,0.234886 -4.59681,0.621138 -0.34162,0.341623 -2.14853,0.812698 -4.01536,1.046831 -5.57504,0.699217 -37.08443,0.827098 -43.39727,0.176135 z m 34.62618,-43.2339075 c 3.70972,-0.239189 6.99398,-0.6839137 7.29835,-0.9882827 0.30437,-0.3043691 1.25999,-0.5533968 2.12361,-0.5533968 0.86362,0 2.01141,-0.333699 2.55064,-0.741553 0.56089,-0.424234 2.10233,-0.748422 3.60226,-0.757615 1.44201,-0.0088 2.76231,-0.243345 2.934,-0.521137 0.17168,-0.277792 0.69649,-0.506476 1.16623,-0.508188 0.46974,-0.0015 1.50509,-0.342638 2.30077,-0.757614 0.79568,-0.414976 1.83184,-0.754503 2.30257,-0.754503 0.47074,0 1.29708,-0.333699 1.83631,-0.741553 0.53922,-0.407849 1.30179,-0.748776 1.69458,-0.757615 1.06329,-0.02392 4.58913,-1.66314 4.58913,-2.133568 0,-0.22433 0.51546,-0.407875 1.14545,-0.407875 0.62999,0 1.98164,-0.56821 3.00366,-1.26269 1.02202,-0.69448 2.12982,-1.262691 2.46178,-1.262691 0.33196,0 2.04308,-0.909137 3.80249,-2.020305 1.75941,-1.111168 3.41555,-2.020305 3.6803,-2.020305 0.26476,0 0.8018,-0.32042 1.19343,-0.712046 0.39162,-0.391627 1.88521,-1.433902 3.31907,-2.316164 1.43387,-0.882267 2.60703,-1.811911 2.60703,-2.065873 0,-0.253968 0.2841,-0.468322 0.63134,-0.476343 1.00646,-0.02323 4.62775,-3.248201 12.23471,-10.895611 7.78219,-7.823561 8.94937,-9.08712 11.15012,-12.070772 0.8196,-1.111168 1.77429,-2.320644 2.12153,-2.687729 0.34724,-0.367079 0.63134,-0.992111 0.63134,-1.388959 0,-0.396844 0.22729,-0.721537 0.50508,-0.721537 0.27779,0 0.50507,-0.316612 0.50507,-0.703576 0,-0.38697 0.34093,-0.834402 0.75762,-0.994304 0.41669,-0.159897 0.75761,-0.627072 0.75761,-1.038164 0,-0.411096 0.56821,-1.360554 1.26269,-2.10991 0.69448,-0.749357 1.26269,-1.75953 1.26269,-2.244827 0,-0.485303 0.34093,-1.013188 0.75762,-1.17309 0.41669,-0.159897 0.75761,-0.866065 0.75761,-1.569267 0,-0.703198 0.17047,-1.27998 0.37881,-1.281732 0.57885,-0.0051 2.14657,-2.983445 2.14657,-4.07835 0,-0.533072 0.1756,-0.969221 0.39023,-0.969221 0.50806,0 2.00921,-2.893602 2.42621,-4.676728 0.17926,-0.766555 0.52803,-1.518638 0.77505,-1.671308 0.24702,-0.152664 0.44912,-0.692747 0.44912,-1.200182 0,-0.507435 0.33953,-1.573621 0.75451,-2.369303 0.41497,-0.795682 0.7559,-1.798986 0.75761,-2.229563 0.002,-0.430578 0.20645,-0.998789 0.45497,-1.262691 0.42471,-0.450988 1.29126,-3.62914 1.92111,-7.045814 0.15363,-0.833376 0.5257,-1.823214 0.82683,-2.199642 0.30113,-0.376429 0.75048,-2.762914 0.99856,-5.303304 0.67261,-6.88764 0.97834,-35.7406 0.39147,-36.94377 -0.271,-0.55558 -0.57201,-2.69909 -0.66892,-4.76336 -0.11001,-2.34349 -0.40518,-3.82953 -0.78585,-3.95642 -0.33532,-0.11178 -0.60968,-0.6205 -0.60968,-1.1305 0,-1.30793 -1.4505,-7.14752 -2.03664,-8.19934 -0.26881,-0.48237 -0.48874,-1.24351 -0.48874,-1.69143 0,-0.44793 -0.34092,-1.58743 -0.75761,-2.53224 l -1.51523,-3.43566 c -0.41669,-0.9448 -0.75761,-1.89121 -0.75761,-2.10313 0,-0.7899 -1.7249,-4.26026 -2.11751,-4.26026 -0.22433,0 -0.40788,-0.45908 -0.40788,-1.02019 0,-0.5611 -0.52799,-1.86799 -1.17332,-2.90419 -0.64532,-1.0362 -1.32573,-2.22492 -1.51201,-2.64161 -0.4139,-0.92583 -1.26288,-2.29078 -2.67029,-4.29315 -0.58577,-0.83337 -1.20999,-1.9698 -1.38719,-2.52538 -0.17719,-0.55558 -0.83493,-1.62262 -1.46163,-2.3712 -0.62671,-0.74857 -1.70768,-2.09545 -2.40216,-2.99307 -0.69448,-0.89761 -1.54679,-1.91672 -1.89403,-2.26468 -0.34724,-0.34796 -0.63135,-0.83236 -0.63135,-1.07644 0,-0.75146 -2.528,-3.59182 -8.62442,-9.69004 -6.68426,-6.68625 -10.65847,-10.21807 -12.09657,-10.75006 -0.54851,-0.20291 -0.99729,-0.56774 -0.99729,-0.81074 0,-0.243 -0.79549,-0.87022 -1.76777,-1.39382 -0.97227,-0.5236 -1.76776,-1.12761 -1.76776,-1.34222 0,-0.21463 -0.34093,-0.39023 -0.75762,-0.39023 -0.41669,0 -0.75761,-0.17521 -0.75761,-0.38935 0,-0.21415 -1.02278,-0.94807 -2.27285,-1.63095 -1.25006,-0.68288 -2.27544,-1.35998 -2.27863,-1.50468 -0.003,-0.1447 -0.96915,-0.7104 -2.14658,-1.25712 -1.17742,-0.54673 -2.98858,-1.51269 -4.02478,-2.14658 -1.0362,-0.63389 -2.20161,-1.15254 -2.5898,-1.15254 -0.3882,0 -0.98875,-0.34092 -1.33457,-0.75761 -0.34582,-0.41669 -1.15021,-0.75762 -1.78752,-0.75762 -0.63732,0 -1.23452,-0.17046 -1.32712,-0.3788 -0.31428,-0.70712 -3.52708,-2.14658 -4.79106,-2.14658 -0.6918,0 -1.59876,-0.34092 -2.01545,-0.75761 -0.41668,-0.41669 -1.18253,-0.75762 -1.70188,-0.75762 -0.51935,0 -1.08473,-0.22728 -1.25642,-0.50507 -0.17168,-0.27779 -1.03742,-0.51313 -1.92384,-0.52298 -0.88643,-0.01 -2.1799,-0.34271 -2.87438,-0.73971 -0.69448,-0.397 -1.87431,-0.72988 -2.62184,-0.73972 -0.74754,-0.01 -1.48861,-0.22735 -1.64682,-0.48334 -0.15821,-0.256 -1.81944,-0.61163 -3.69161,-0.7903 -1.87217,-0.17868 -3.85852,-0.52012 -4.4141,-0.75877 -1.78415,-0.76639 -17.98346,-1.68782 -23.73859,-1.35028 -9.56551,0.56102 -13.09819,0.89578 -14.14213,1.34013 -0.55559,0.23648 -2.58503,0.55674 -4.50988,0.71168 -1.92484,0.15494 -3.73176,0.51375 -4.01536,0.79735 -0.28359,0.2836 -1.0952,0.52369 -1.80357,0.53353 -0.70837,0.01 -1.85616,0.34272 -2.55064,0.73972 -0.69448,0.397 -1.87569,0.72987 -2.62492,0.73971 -0.74923,0.01 -2.4309,0.58611 -3.73703,1.28059 -1.30614,0.69448 -2.92432,1.26269 -3.59596,1.26269 -0.67164,0 -1.96613,0.56821 -2.87664,1.26269 -0.91051,0.69448 -2.13199,1.26269 -2.71441,1.26269 -0.58242,0 -1.17756,0.19193 -1.32253,0.42652 -0.27738,0.4488 -6.48609,3.61409 -7.08904,3.61409 -0.19279,0 -1.09549,0.56822 -2.006,1.2627 -0.91051,0.69448 -1.89144,1.26269 -2.17984,1.26269 -0.84854,0 -13.85708,9.56175 -15.9013,11.68803 -1.03059,1.07196 -2.01003,1.94903 -2.17652,1.94903 -0.1665,0 -1.48249,1.25477 -2.92443,2.78838 -1.44193,1.53361 -3.9958,4.22602 -5.67526,5.98312 -4.12244,4.31302 -13.36141,17.43235 -13.36141,18.97319 0,0.25047 -0.17998,0.53116 -0.39996,0.62376 -0.21997,0.0926 -1.71504,2.89577 -3.32238,6.22927 -1.60733,3.3335 -3.24563,6.66419 -3.64065,7.40153 -0.39503,0.73734 -0.71823,1.90739 -0.71823,2.6001 0,0.69271 -0.56548,2.24864 -1.25661,3.45761 -0.70434,1.23206 -1.25928,3.01256 -1.26269,4.05123 -0.003,1.01921 -0.32985,2.49656 -0.72557,3.28299 -1.00151,1.99038 -1.62873,4.71984 -2.3017,10.01619 -0.31767,2.50013 -0.83128,6.36396 -1.14135,8.5863 -0.70387,5.04472 -0.69563,15.87169 0.0161,21.2132 0.29613,2.22234 0.80235,6.08617 1.12494,8.5863 0.63816,4.945843 1.83625,9.68118 2.56309,10.130395 0.2521,0.155806 0.45836,1.274232 0.45836,2.48539 0,1.211157 0.37939,2.959196 0.84308,3.884531 1.54025,3.073723 1.68231,3.430902 1.68231,4.230029 0,0.436446 0.5305,1.746412 1.1789,2.911042 0.6484,1.164626 1.33458,2.742534 1.52485,3.506462 0.19027,0.763928 0.5689,1.38896 0.8414,1.38896 0.2725,0 0.49546,0.401808 0.49546,0.892909 0,0.491096 0.56821,1.729103 1.26269,2.75112 0.69448,1.022022 1.26366,2.154383 1.26485,2.516361 10e-4,0.361978 0.68207,1.680919 1.51307,2.930983 0.83099,1.250064 1.51187,2.556948 1.51306,2.904188 10e-4,0.34724 0.22945,0.631346 0.50724,0.631346 0.27779,0 0.50508,0.251396 0.50508,0.558665 0,0.307263 0.68185,1.419572 1.51523,2.471792 0.83337,1.052221 1.51522,2.16453 1.51522,2.471793 0,0.307268 0.22729,0.558665 0.50508,0.558665 0.27779,0 0.50508,0.329633 0.50508,0.732517 0,0.402884 0.28545,0.914274 0.63433,1.136422 0.34888,0.222147 1.31113,1.310688 2.13832,2.418977 0.8272,1.108289 2.36003,2.897148 3.40628,3.975243 1.04626,1.078095 1.90229,2.070969 1.90229,2.206385 0,0.559716 8.38441,8.71298 8.9651,8.71795 0.34724,0.003 0.63135,0.204849 0.63135,0.448619 0,0.24377 1.30688,1.493394 2.90419,2.776945 1.5973,1.28355 3.1787,2.561448 3.51421,2.839781 0.33552,0.278327 0.84691,0.506051 1.13642,0.506051 0.28952,0 0.5264,0.181959 0.5264,0.404359 0,0.222395 1.03467,1.058367 2.29927,1.857711 1.26459,0.799344 2.77672,1.867444 3.36027,2.37356 0.58356,0.506117 1.36716,0.920209 1.74134,0.920209 0.37419,0 0.68034,0.222956 0.68034,0.495455 0,0.272498 0.56821,0.638062 1.26269,0.812369 0.69448,0.174302 1.26269,0.519557 1.26269,0.767236 0,0.247675 0.3131,0.450321 0.69577,0.450321 0.38267,0 0.97871,0.340927 1.32453,0.757615 0.34582,0.416688 1.16915,0.757614 1.82961,0.757614 0.66047,0 1.20085,0.178282 1.20085,0.396177 0,0.686282 2.87663,2.129204 4.24481,2.129204 0.72107,0 1.31103,0.222956 1.31103,0.495455 0,0.272499 0.56821,0.638063 1.26269,0.81237 0.69448,0.174302 1.26269,0.519557 1.26269,0.767236 0,0.247674 0.66562,0.450321 1.47915,0.450321 0.81354,0 1.82008,0.340926 2.23677,0.757614 0.41669,0.416688 1.20244,0.757615 1.74611,0.757615 0.54367,0 1.63951,0.339527 2.43519,0.754503 0.79568,0.414976 1.83103,0.755902 2.30077,0.757614 0.46974,0.0015 0.99454,0.230396 1.16623,0.508188 0.17168,0.277792 1.4514,0.505076 2.8438,0.505076 1.57692,0 2.81736,0.285712 3.28927,0.757614 0.44096,0.440962 1.6749,0.757615 2.95229,0.757615 1.20707,0 2.28023,0.2566796 2.38481,0.5704027 0.39488,1.1846463 22.42999,1.7930814 35.17581,0.9712768 z"
         style="opacity:1;fill:#000000;fill-opacity:1;fill-rule:nonzero;stroke:none;stroke-width:29.96403313;stroke-miterlimit:4;stroke-dasharray:none;stroke-dashoffset:0;stroke-opacity:1" />
      <path
         transform="matrix(0.26458334,0,0,0.26458334,0,286.41665)"
         inkscape:connector-curvature="0"
         id="path4524"
         d="m -661.36046,-45.837378 c -1.23686,-0.684257 -2.54881,-1.672378 -2.91544,-2.195814 -0.36663,-0.523441 -1.00246,-1.287571 -1.41296,-1.698071 -0.4105,-0.410501 -0.74637,-1.398996 -0.74637,-2.196653 0,-0.797662 -0.2289,-1.679197 -0.50868,-1.958969 -0.61612,-0.616122 -0.39095,-136.939725 0.23045,-139.519855 0.43513,-1.80669 4.27135,-6.14054 5.43547,-6.14054 0.38591,0 0.92752,-0.22587 1.20358,-0.50193 0.27607,-0.27607 1.88644,-0.64665 3.57861,-0.82351 2.33443,-0.244 3.47493,-0.12291 4.72745,0.50193 0.90792,0.45293 1.95677,0.82351 2.33078,0.82351 0.37401,0 0.68001,0.21197 0.68001,0.47104 0,0.25907 0.51139,0.63063 1.13643,0.82569 0.62503,0.19506 1.25006,0.49448 1.38896,0.66538 0.38021,0.46783 1.93369,1.36659 5.42229,3.13705 1.7322,0.87909 3.40784,1.90968 3.72365,2.2902 0.31581,0.38052 0.88729,0.69186 1.26996,0.69186 0.38268,0 0.69721,0.17046 0.69897,0.37881 0.004,0.44 2.87132,2.14657 3.60697,2.14657 0.27381,0 1.24281,0.56821 2.15332,1.26269 0.91051,0.69448 2.03176,1.26269 2.49168,1.26269 0.45991,0 0.83621,0.23442 0.83621,0.52093 0,0.28651 0.39774,0.66753 0.88388,0.8467 0.48614,0.17918 1.58719,0.8539 2.44679,1.49938 0.85959,0.64548 1.93919,1.1736 2.39911,1.1736 0.45991,0 0.83621,0.18553 0.83621,0.41228 0,0.22675 1.467,1.17229 3.25999,2.10119 1.793,0.9289 3.37686,1.99344 3.51969,2.36564 0.14282,0.3722 0.72138,0.67673 1.28569,0.67673 0.5643,0 1.026,0.19277 1.026,0.42837 0,0.2356 0.96596,0.85414 2.14657,1.37454 1.18062,0.52039 2.32834,1.23676 2.55048,1.59193 0.22215,0.35518 0.84718,0.64577 1.38896,0.64577 0.54178,0 0.98506,0.20701 0.98506,0.46002 0,0.40023 1.08073,1.04343 5.58108,3.32155 0.5417,0.27422 0.98491,0.67197 0.98491,0.88389 0,0.21192 0.3131,0.3853 0.69577,0.3853 0.38267,0 0.97871,0.34093 1.32453,0.75762 0.34583,0.41669 0.95703,0.75761 1.35824,0.75761 0.40121,0 1.47443,0.56821 2.38494,1.26269 0.91051,0.69448 1.97727,1.26269 2.37058,1.26269 0.3933,0 1.28678,0.51139 1.98551,1.13643 0.69873,0.62503 2.17375,1.58501 3.27784,2.13328 1.10408,0.54827 2.68927,1.49654 3.52264,2.10725 0.83338,0.61071 2.14027,1.26637 2.90419,1.457 0.76393,0.19064 1.38896,0.54927 1.38896,0.79694 0,0.24768 0.31662,0.45033 0.70358,0.45033 0.38697,0 0.8344,0.34092 0.9943,0.75761 0.1599,0.41669 0.75243,0.75761 1.31673,0.75761 0.5643,0 1.026,0.20701 1.026,0.46002 0,0.25302 0.96596,0.94606 2.14658,1.5401 2.39433,1.20473 3.46026,1.82486 5.67782,3.30318 0.8334,0.55559 2.19808,1.37932 3.03263,1.83052 0.83453,0.4512 2.31284,1.2917 3.28511,1.86778 0.97227,0.57607 2.73372,1.55408 3.91434,2.17335 1.18062,0.61927 2.14657,1.31294 2.14657,1.54149 0,0.22855 0.46408,0.41555 1.03127,0.41555 0.5672,0 1.53316,0.46865 2.14658,1.04145 0.61342,0.5728 2.1949,1.53743 3.51441,2.14362 1.31952,0.60619 2.39912,1.2673 2.39912,1.46912 0,0.20183 1.19324,0.91875 2.65165,1.59316 1.45841,0.67441 3.43126,1.93114 4.38412,2.79272 0.95285,0.86159 1.86333,1.56653 2.02328,1.56653 0.15994,0 0.58341,0.73867 0.94104,1.6415 0.35762,0.90282 0.98132,2.28495 1.38598,3.07139 0.40467,0.78643 0.73576,2.18599 0.73576,3.11011 0,1.75023 -2.14696,6.42861 -3.64059,7.93313 -0.96349,0.97051 -7.1335,4.952 -7.67398,4.952 -0.19045,0 -0.95906,0.56821 -1.70803,1.26269 -0.74896,0.69448 -1.65618,1.26269 -2.01603,1.26269 -0.63631,0 -3.14177,1.41904 -3.64919,2.06683 -0.1389,0.17732 -0.76393,0.48199 -1.38896,0.67705 -0.62504,0.19506 -1.13643,0.56661 -1.13643,0.82569 0,0.25907 -0.40007,0.47104 -0.88904,0.47104 -0.48898,0 -1.50184,0.56821 -2.2508,1.26269 -0.74897,0.69448 -1.72231,1.26269 -2.16298,1.26269 -0.44067,0 -2.03188,0.909136 -3.53601,2.020304 -1.50413,1.111168 -3.05223,2.020305 -3.44022,2.020305 -0.38798,0 -1.31853,0.568211 -2.06789,1.262691 -0.74936,0.69448 -1.63486,1.263665 -1.96779,1.264852 -0.33292,0.001 -1.6281,0.68207 -2.87816,1.513067 -1.25007,0.830997 -2.55695,1.511875 -2.90419,1.513067 -0.34724,0.001 -0.63135,0.204809 -0.63135,0.452483 0,0.247679 -0.56821,0.592934 -1.26269,0.767236 -0.69448,0.174307 -1.26269,0.539871 -1.26269,0.81237 0,0.272499 -0.34093,0.495455 -0.75761,0.495455 -0.41669,0 -0.75762,0.202646 -0.75762,0.45032 0,0.24768 -0.51139,0.582732 -1.13642,0.744564 -0.62503,0.161831 -1.7968,0.868322 -2.60394,1.569984 -0.80714,0.701657 -1.80846,1.275742 -2.22517,1.275742 -0.41671,0 -1.50261,0.568211 -2.41312,1.26269 -0.91051,0.69448 -1.87009,1.262691 -2.1324,1.262691 -0.26232,0 -0.75988,0.340927 -1.1057,0.757615 -0.34582,0.416687 -0.95178,0.757614 -1.34658,0.757614 -0.3948,0 -1.3306,0.568211 -2.07957,1.262691 -0.74896,0.694479 -1.66992,1.26269 -2.04656,1.26269 -0.37665,0 -1.39703,0.51139 -2.26753,1.136422 -1.78211,1.27959 -2.87116,1.935543 -5.31186,3.199416 -0.92833,0.480721 -1.80496,1.179166 -1.94807,1.552099 -0.14311,0.372928 -0.70561,0.678055 -1.25001,0.678055 -0.5444,0 -1.73478,0.568211 -2.64529,1.262691 -0.91051,0.694479 -1.83674,1.26269 -2.05829,1.26269 -0.22156,0 -1.79109,0.876222 -3.48786,1.947155 -1.69677,1.070934 -3.59643,2.109032 -4.22146,2.30688 -0.62503,0.197849 -1.13642,0.571691 -1.13642,0.830765 0,0.259069 -0.34093,0.471039 -0.75762,0.471039 -0.41668,0 -0.75761,0.222956 -0.75761,0.495455 0,0.272499 -0.56821,0.638063 -1.26269,0.812369 -0.69448,0.174302 -1.26269,0.519557 -1.26269,0.767237 0,0.247674 -0.3131,0.450321 -0.69577,0.450321 -0.38268,0 -0.97872,0.340926 -1.32454,0.757614 -0.34582,0.416688 -0.97723,0.757614 -1.40313,0.757614 -0.4259,0 -1.51932,0.568211 -2.42983,1.262691 -0.91051,0.69448 -1.90506,1.262691 -2.21011,1.262691 -0.30504,0 -0.68545,0.340926 -0.84535,0.757614 -0.15989,0.416688 -0.57561,0.757615 -0.92382,0.757615 -0.3482,0 -1.4704,0.56821 -2.49377,1.26269 -1.02337,0.69448 -2.09303,1.262691 -2.37702,1.262691 -0.28399,0 -1.26131,0.568211 -2.17182,1.262691 -0.91051,0.694479 -1.8903,1.26269 -2.1773,1.26269 -0.28701,0 -0.78428,0.316234 -1.10506,0.702743 -0.32077,0.38651 -2.50313,1.636574 -4.84968,2.77792 -3.68932,1.794465 -4.69488,2.068115 -7.43357,2.022977 -2.35036,-0.03874 -3.74705,-0.37304 -5.41595,-1.296314 z"
         style="opacity:1;fill:#000000;fill-opacity:1;fill-rule:nonzero;stroke:none;stroke-width:29.96403313;stroke-miterlimit:4;stroke-dasharray:none;stroke-dashoffset:0;stroke-opacity:1" />
    </g>
  </g>
</svg>
